<svg width="960" height="280" viewBox="0 0 960 280" fill="none" xmlns="http://www.w3.org/2000/svg">
  <defs>
    <linearGradient id="bgGlow" x1="480" y1="20" x2="480" y2="260" gradientUnits="userSpaceOnUse">
      <stop stop-color="#FFF2C9"/>
      <stop offset="1" stop-color="#FFC46A"/>
    </linearGradient>
    <linearGradient id="titleFill" x1="160" y1="78" x2="824" y2="220" gradientUnits="userSpaceOnUse">
      <stop stop-color="#FFF8E4"/>
      <stop offset="0.48" stop-color="#FFD76F"/>
      <stop offset="1" stop-color="#FF9F2A"/>
    </linearGradient>
    <linearGradient id="roadFill" x1="480" y1="148" x2="480" y2="270" gradientUnits="userSpaceOnUse">
      <stop stop-color="#45325F"/>
      <stop offset="1" stop-color="#241737"/>
    </linearGradient>
    <filter id="softShadow" x="60" y="20" width="840" height="230" filterUnits="userSpaceOnUse" color-interpolation-filters="sRGB">
      <feOffset dy="12"/>
      <feGaussianBlur stdDeviation="14"/>
      <feColorMatrix type="matrix" values="0 0 0 0 0.2 0 0 0 0 0.12 0 0 0 0 0.03 0 0 0 0.28 0"/>
      <feBlend in2="SourceGraphic" result="shape"/>
    </filter>
  </defs>

  <g filter="url(#softShadow)">
    <rect x="74" y="42" width="812" height="188" rx="42" fill="#2D2144"/>
    <rect x="88" y="56" width="784" height="160" rx="34" fill="url(#bgGlow)" opacity="0.22"/>
  </g>

  <circle cx="480" cy="118" r="62" fill="#FFE0A3" opacity="0.4"/>
  <circle cx="480" cy="118" r="38" fill="#FFD186" opacity="0.28"/>

  <g opacity="0.28">
    <rect x="142" y="96" width="46" height="80" rx="6" fill="#5D496C"/>
    <rect x="194" y="86" width="34" height="90" rx="6" fill="#6E577F"/>
    <rect x="732" y="84" width="38" height="92" rx="6" fill="#6B557D"/>
    <rect x="776" y="98" width="50" height="78" rx="6" fill="#5B466C"/>
  </g>

  <path d="M364 232L442 152H518L596 232H364Z" fill="url(#roadFill)"/>
  <path d="M470 166H490V232H470V166Z" fill="#FFF1BA" opacity="0.78"/>
  <path d="M430 198H444V232H430V198Z" fill="#FFF1BA" opacity="0.52"/>
  <path d="M516 198H530V232H516V198Z" fill="#FFF1BA" opacity="0.52"/>

  <g transform="translate(460 112)">
    <circle cx="0" cy="-10" r="14" fill="#FFD8B2"/>
    <path d="M-16 -15C-10 -30 10 -31 20 -18L22 -6H-18L-16 -15Z" fill="#D94E1F"/>
    <path d="M22 -18L36 -11L23 -4Z" fill="#2B1D35"/>
    <rect x="-12" y="6" width="24" height="34" rx="10" fill="#4D83E8"/>
    <rect x="-12" y="34" width="24" height="6" rx="3" fill="#FFD24C"/>
    <rect x="-22" y="12" width="8" height="26" rx="4" fill="#3D7AE6"/>
    <rect x="14" y="12" width="8" height="26" rx="4" fill="#3D7AE6"/>
    <rect x="-10" y="42" width="8" height="26" rx="4" fill="#3D7AE6"/>
    <rect x="2" y="42" width="8" height="26" rx="4" fill="#3D7AE6"/>
  </g>

  <g>
    <circle cx="348" cy="132" r="18" fill="#FFD455"/>
    <circle cx="348" cy="132" r="11" fill="#FFB320"/>
    <circle cx="612" cy="132" r="18" fill="#FFD455"/>
    <circle cx="612" cy="132" r="11" fill="#FFB320"/>
    <circle cx="638" cy="152" r="14" fill="#FFD455"/>
    <circle cx="638" cy="152" r="8" fill="#FFB320"/>
  </g>

  <text x="480" y="110" text-anchor="middle" fill="url(#titleFill)" font-size="62" font-weight="900" font-family="Trebuchet MS, Segoe UI, sans-serif" letter-spacing="2">TREASURE RUN</text>
  <text x="480" y="162" text-anchor="middle" fill="#FFF4D6" font-size="34" font-weight="800" font-family="Trebuchet MS, Segoe UI, sans-serif" letter-spacing="6">ADVENTURE</text>
  <text x="480" y="200" text-anchor="middle" fill="#F9D98A" font-size="18" font-weight="700" font-family="Trebuchet MS, Segoe UI, sans-serif" letter-spacing="3">CITY ROAD  COINS  TREASURE REWARDS</text>
</svg>
